<svg id="Layer_1" data-name="Layer 1" xmlns="http://www.w3.org/2000/svg" viewBox="0 0 50 50"><defs><style>.cls-1{fill:#fff;}</style></defs><title>La Rebaja new_v1</title><path class="cls-1" d="M13.18,30.08H7.86a1,1,0,1,0,0,1.93h5.32a1,1,0,1,0,0-1.93Z"/><path class="cls-1" d="M10.89,25.75a1,1,0,0,0-1-1H2.61a1,1,0,0,0,0,1.93H9.93A1,1,0,0,0,10.89,25.75Z"/><path class="cls-1" d="M5.52,21.4h5.32a1,1,0,1,0,0-1.93H5.52a1,1,0,0,0,0,1.93Z"/><path class="cls-1" d="M47.62,16.54a3.88,3.88,0,0,0-3.19-1.63H19.82c-.28-1.17-.51-2.11-.64-2.66-.91-3.86-3.7-3.62-4-3.6H12.75a.83.83,0,1,0,0,1.66h2.64s1.58-.22,2.18,2.33,3.18,13,4.37,17.83c.41,1.64.51,2.06.54,2.17A4.37,4.37,0,0,0,26,36.3a3,3,0,0,0-.81,2,3,3,0,0,0,6,0,3,3,0,0,0-.61-1.81h5a3,3,0,0,0-.61,1.81,3,3,0,0,0,6,0,3,3,0,0,0-.66-1.87.83.83,0,0,0-.32-1.59H28c-3.38,0-3.86-1.91-3.93-2.53l-.28-1.14,16.84,2.24a3,3,0,0,0,.57.05,3.71,3.71,0,0,0,3.3-2.71l3.61-10.71A3.88,3.88,0,0,0,47.62,16.54Zm-19.9,3.35L21,19.69l-.77-3.13h7.09Zm18.86-.34-.3.9-7.22-.21.6-3.67h4.77a2.26,2.26,0,0,1,2.15,3Zm-2.91,8.64L43,30.26c-.29.88-1.05,1.74-2,1.55l-3.7-.49.59-3.62Zm-6.55-6.36-.67,4.09L30,25.38l-.45-3.78Zm-8.56,5.09.4,3.3-5.56-.74-.75-3.05ZM29,16.56h9l-.59,3.62-8-.24Zm16.74,5.53-1.51,4.48-6.11-.51.69-4.18ZM28.36,25.24l-6.13-.51-.83-3.37,6.52.19Zm7.82,2.32L35.6,31.1l-4.95-.66-.41-3.38Zm.57,10.78a1.37,1.37,0,1,1,1.37,1.37A1.37,1.37,0,0,1,36.75,38.34Zm-9.88,0a1.37,1.37,0,1,1,1.37,1.37A1.37,1.37,0,0,1,26.86,38.34Z"/></svg>